<?xml version="1.0" ?><svg viewBox="0 0 22.079 22.078" xmlns="http://www.w3.org/2000/svg"><g data-name="Layer 2" id="Layer_2"><g data-name="Layer 1" id="Layer_1-2"><path d="M10.594,13.381h1.785a.335.335,0,0,1,0,.669H10.594A.335.335,0,0,1,10.594,13.381Zm2.063,5.353H10.594a.335.335,0,0,0,0,.669h2.063A.335.335,0,0,0,12.657,18.734ZM5.241,3.345H8.809a.335.335,0,0,0,0-.67H5.241A.335.335,0,0,0,5.241,3.345ZM9.7,5.352H7.61a.335.335,0,0,0,0,.669H9.7A.335.335,0,0,0,9.7,5.352Zm-7.136.669H5.826a.335.335,0,0,0,0-.669H2.565A.335.335,0,0,0,2.565,6.021ZM7.7,8.028H5.66a.335.335,0,0,0,0,.669H7.7A.335.335,0,0,0,7.7,8.028ZM2.565,8.7H3.876a.335.335,0,0,0,0-.669H2.565A.335.335,0,0,0,2.565,8.7Zm4.46,2.008H2.565a.335.335,0,0,0,0,.669h4.46A.335.335,0,0,0,7.025,10.705Zm-.167,2.676H5.632a.335.335,0,1,0,0,.669H6.858A.335.335,0,0,0,6.858,13.381Zm-3.01,0H2.565a.335.335,0,1,0,0,.669H3.848A.335.335,0,0,0,3.848,13.381ZM22.079,5.687V21.744a.334.334,0,0,1-.334.334H8.364a.333.333,0,0,1-.334-.334V16.726H.335A.335.335,0,0,1,0,16.391V.334A.335.335,0,0,1,.335,0h13.38a.335.335,0,0,1,.335.334V5.353h7.7A.335.335,0,0,1,22.079,5.687ZM8.127,9.465l4.015-4.014c.133-.185,1.042-.067,1.239-.1V.669H.669V16.057H8.03V9.7A.338.338,0,0,1,8.127,9.465Zm1.148-.2,2.769-.307V6.5ZM21.41,6.022h-8.7V9.256a.334.334,0,0,1-.3.332L8.7,10V21.409H21.41ZM14.609,8.7h4.906a.335.335,0,0,0,0-.669H14.609A.335.335,0,0,0,14.609,8.7Zm4.906,2.008H17.424a.335.335,0,0,0,0,.669h2.091A.335.335,0,0,0,19.515,10.705Zm-8.921.669H15.64a.335.335,0,0,0,0-.669H10.594A.335.335,0,0,0,10.594,11.374Zm8.921,2.007H14.163a.335.335,0,0,0,0,.669h5.352A.335.335,0,0,0,19.515,13.381Zm0,2.677H16.839a.334.334,0,0,0,0,.668h2.676A.334.334,0,0,0,19.515,16.058Zm-8.921.668h4.46a.334.334,0,0,0,0-.668h-4.46A.334.334,0,0,0,10.594,16.726Zm6.244,2.008h-2.4a.335.335,0,0,0,0,.669h2.4A.335.335,0,0,0,16.838,18.734ZM4.847,20.517H1.673a1,1,0,0,1-1-1v-.892a.335.335,0,0,0-.669,0v.892a1.675,1.675,0,0,0,1.673,1.673H4.847v.666l1.733-1-1.733-1ZM20.407.892H17.233V.226l-1.733,1,1.733,1V1.561h3.174a1,1,0,0,1,1,1v.892a.335.335,0,0,0,.669,0V2.565A1.675,1.675,0,0,0,20.407.892Z" data-name="literature exchange" id="literature_exchange" fill="#1A1003" fill-opacity="0.5"/></g></g></svg>